<svg xmlns:sketch="http://www.bohemiancoding.com/sketch/ns" xmlns="http://www.w3.org/2000/svg" width="230" height="132" viewBox="0 0 230 132"><title>logo</title><path sketch:type="MSShapeGroup" d="M84.845 66.678"/><path d="M118.336 21.5c9.946 0 24.589 30.808 19.893 40.328-4.696 9.52-34.701 10.308-39.786 0-5.085-10.307 9.946-40.328 19.893-40.328z" fill="none"/><path fill="#D0011B" d="M118.336 21.5c-9.946 0-24.977 30.021-19.893 40.328s35.09 9.52 39.786 0c4.696-9.52-9.947-40.328-19.893-40.328zm3.63 37.961v-1.996c0-2.02-1.559-3.659-3.472-3.659-1.918 0-3.472 1.639-3.472 3.659v2.383c-2.071-1.703-3.473-4.808-3.473-7.482 0-2.064.836-3.459 2.17-4.318v-.713c0-11.189 4.557-16.416 4.557-16.416s4.557 5.227 4.557 16.416v.713c1.334.858 2.17 2.253 2.17 4.318.002 2.482-1.207 5.337-3.037 7.095z"/><path sketch:type="MSShapeGroup" fill="#fff" d="M53.018 107.987c0 .961.763 1.724 1.752 1.724.961 0 1.724-.763 1.724-1.724v-16.615c0-.961-.763-1.724-1.724-1.724-.989 0-1.752.763-1.752 1.724v16.615zm24.868 1.921c2.967 0 5.34-1.017 7.036-2.147.819-.509 1.215-1.215 1.215-2.204v-5.284c0-.989-.763-1.752-1.752-1.752h-5.51c-.848 0-1.554.678-1.554 1.526s.706 1.498 1.554 1.498h3.899v3.702c-1.215.904-2.91 1.498-4.775 1.498-4.041 0-6.725-2.995-6.725-7.064v-.057c0-3.786 2.769-6.979 6.414-6.979 2.147 0 3.532.622 4.804 1.554.283.198.622.396 1.074.396.961 0 1.724-.791 1.724-1.724 0-.678-.367-1.159-.706-1.413-1.808-1.3-3.786-2.006-6.753-2.006-5.962 0-10.201 4.691-10.201 10.229v.057c-.001 5.762 4.068 10.17 10.256 10.17zm19.5-1.893c0 .932.763 1.695 1.724 1.695.932 0 1.695-.763 1.695-1.695v-12.546l10.172 13.168c.48.622.989 1.045 1.808 1.045h.141c.961 0 1.695-.763 1.695-1.724v-16.615c0-.932-.763-1.695-1.724-1.695-.932 0-1.695.763-1.695 1.695v12.15l-9.89-12.8c-.48-.593-.961-1.017-1.808-1.017h-.367c-.989 0-1.752.791-1.752 1.752v16.587zm29.248-.028c0 .961.763 1.724 1.752 1.724.961 0 1.724-.763 1.724-1.724v-16.615c0-.961-.763-1.724-1.724-1.724-.989 0-1.752.763-1.752 1.724v16.615zm20.347 0c0 .961.791 1.724 1.752 1.724s1.752-.763 1.752-1.724v-14.976h4.832c.876 0 1.582-.735 1.582-1.611s-.706-1.611-1.582-1.611h-13.139c-.904 0-1.611.735-1.611 1.611s.706 1.611 1.611 1.611h4.804l-.001 14.976zm21.93 1.582h11.642c.848 0 1.554-.678 1.554-1.554 0-.848-.706-1.554-1.554-1.554h-9.918v-5.312h8.505c.848 0 1.554-.678 1.554-1.526 0-.876-.706-1.582-1.554-1.582h-8.505v-5.143h9.777c.848 0 1.554-.678 1.554-1.554 0-.848-.706-1.554-1.554-1.554h-11.5c-.989 0-1.752.763-1.752 1.752v16.276c-.001.988.762 1.751 1.751 1.751z"/><path sketch:type="MSShapeGroup" fill="#fff" d="M187.193 86.183c0 .172.14.312.312.312.183 0 .323-.14.323-.312v-2.476h.797c.151 0 .28-.14.28-.291 0-.161-.129-.291-.28-.291h-2.228c-.151 0-.28.129-.28.291 0 .151.129.291.28.291h.797l-.001 2.476zm2.368.011c0 .172.14.301.312.301.161 0 .301-.129.301-.301v-1.927l.786 1.195c.075.108.151.161.269.161.129 0 .205-.065.269-.161l.786-1.206v1.938c0 .172.14.301.301.301.172 0 .312-.129.312-.301v-2.788c0-.172-.14-.312-.301-.312h-.075c-.129 0-.215.054-.28.161l-1.012 1.593-.99-1.593c-.054-.086-.151-.161-.291-.161h-.075c-.172 0-.312.14-.312.312v2.788z"/></svg>